<!--?xml version="1.0" encoding="utf-8"?-->
<!-- Generator: Adobe Illustrator 18.1.1, SVG Export Plug-In . SVG Version: 6.00 Build 0)  -->

<svg version="1.1" id="_x32_" xmlns="http://www.w3.org/2000/svg" xmlns:xlink="http://www.w3.org/1999/xlink" x="0px" y="0px" viewBox="0 0 512 512" style="width: 256px; height: 256px; opacity: 1;" xml:space="preserve">
<style type="text/css">
	.st0{fill:#4B4B4B;}
</style>
<g>
	<path class="st0" d="M341.574,245.957c-2.213-2.006-4.494-3.781-6.775-5.197c-2.29-1.415-4.554-2.504-7.015-3.018
		c-0.549-0.102-1.287-0.428-2.213-1.166c-1.621-1.261-3.594-3.757-5.506-6.801c-2.908-4.58-5.72-10.292-8.748-15.12
		c-1.527-2.419-3.096-4.648-5.026-6.509c-0.97-0.918-2.041-1.767-3.328-2.419c-1.269-0.66-2.796-1.106-4.416-1.106
		c-1.87,0.009-3.671,0.403-5.377,1.038c-3.002,1.123-5.816,2.95-8.568,5.24c-4.126,3.447-8.114,7.967-11.741,13.07
		c-3.62,5.103-6.853,10.781-9.323,16.544c-0.626,1.458-0.952,3.027-0.952,4.571c0,1.604,0.344,3.147,0.892,4.571
		c1.046,2.667,2.779,4.949,4.897,7.067c3.722,3.696,8.748,6.973,14.546,10.018c8.705,4.537,19.159,8.464,29.305,11.311
		c10.163,2.83,19.922,4.597,27.556,4.606c1.432,0,2.804-0.06,4.107-0.206c1.792-0.196,3.422-0.574,4.932-1.166
		c2.255-0.884,4.245-2.359,5.54-4.331c1.312-1.964,1.826-4.228,1.81-6.329c-0.025-3.748-1.372-7.213-3.216-10.618
		C350.15,254.919,345.999,249.988,341.574,245.957z" style="fill: rgb(75, 75, 75);"></path>
	<path class="st0" d="M507.283,310.51v-0.017v-0.112c0-12.032,1.15-26.08,2.324-40.763c1.183-14.742,2.392-30.137,2.392-45.034
		c-0.017-14.305-1.089-28.198-4.657-40.788c-1.8-6.295-4.236-12.281-7.564-17.744c-3.232-5.318-7.341-10.112-12.376-14.108
		l0.009-0.009l-0.017-0.018l-0.215-0.214l-0.231-0.18c-9.502-7.221-18.482-12.126-27.976-15.059
		c-9.494-2.942-19.219-3.86-30.154-3.86c-12.367,0-26.466,1.141-44.613,2.213c-16.09,0.943-38.096,1.114-58.19,1.114
		c-10.694,0-20.848-0.043-29.4-0.043c-11.474,0.009-30.874-1.706-50.548-4.46c-19.691-2.727-39.956-6.526-53.318-10.402
		c-12.427-3.594-23.542-8.242-33.276-12.145c-4.888-1.955-9.442-3.73-13.782-5.086c-0.369-0.112-0.72-0.18-1.089-0.283
		c1.244-3.997,1.749-7.864,1.749-11.26c0-2.496-0.248-4.794-0.738-6.887l-0.009-0.034l-0.009-0.026
		c-0.257-1.047-0.591-2.11-1.072-3.19l-0.018-0.043l-0.009-0.026c-0.428-0.943-1.2-2.384-2.478-3.671l-0.043-0.043
		c-1.861-1.861-4.048-2.916-6.02-3.559l-0.052-0.018h0.018c-1.921-0.608-4.005-0.874-6.149-0.918v-0.034l-0.42-0.026
		c0,0-0.008,0-0.017,0l0,0h-0.034c-5.823,0-12.462,2.264-18.85,7.049L87.014,80.05l-2.333,1.424c-0.009,0-5.78,3.543-12.118,7.454
		c-3.173,1.964-6.475,4.013-9.288,5.772c-2.822,1.767-5.086,3.19-6.407,4.065l-0.205,0.137l-1.904,1.587l-0.12,0.094l-0.112,0.112
		c-1.157,1.106-2.392,2.436-3.824,4.022c-4.966,5.54-12.239,14.391-18.86,22.204c-3.293,3.893-6.415,7.503-8.876,10.206
		c-1.209,1.329-2.273,2.435-3.045,3.173l0.009,0.009l-0.772,0.703c-2.513,1.432-6.218,3.474-9.606,5.72l-0.017,0.018
		c-1.758,1.175-3.508,2.444-5.129,3.988l-0.043,0.034c-0.806,0.78-1.698,1.766-2.496,3.01l-0.137,0.206l-0.892,1.801l-0.119,0.24
		l-0.086,0.248c-0.343,0.986-0.617,2.196-0.635,3.577v0.06v0.068c0.009,1.269,0.275,2.401,0.386,2.856l0.017,0.043l0.009,0.043
		c0.326,1.252,0.746,2.41,1.227,3.627c1.724,4.272,4.665,10.12,8.13,15.455c1.732,2.65,3.594,5.215,5.78,7.444
		c1.081,1.106,2.35,2.239,3.928,3.198l0.018,0.009c1.474,0.909,3.79,1.998,6.68,2.016h0.129l0.068-0.009
		c0.24,0.009,1.526,0.077,3.096,0.214l-0.317-0.026l0.334,0.026c6.398,0.532,19.459,1.938,33.988,3.448
		c12.855,1.33,26.8,2.736,38.764,3.731c2.067,3.516,5.283,9.125,8.928,16.054c5.447,10.317,11.681,23.319,15.78,35.146
		c1.107,3.173,2.359,7.641,3.646,12.607c1.946,7.488,4.013,16.184,6.268,24.28c1.132,4.056,2.298,7.967,3.577,11.578
		c1.278,3.594,2.624,6.896,4.262,9.854c7.179,12.839,14.357,24.563,19.554,34.4c2.606,4.906,4.699,9.356,6.072,13.061
		c1.372,3.637,1.955,6.664,1.938,8.302v0.043v0.137c0,11.792,0,35.934,0,41.68l-5.755,19.494l5.858,3.679
		c1.046,0.66,8.499,4.948,21.32,5.077l0.103,0.026h0.489h0.034h0.043h0.026h0.068v-0.009c3.851-0.009,7.402-0.746,10.489-2.221
		c2.376-1.15,4.357-2.693,5.918-4.417l-0.137,0.146l0.155-0.162c2.315-2.598,3.601-5.454,4.314-7.95
		c0.695-2.478,0.875-4.691,0.875-6.389c0-1.862,0-15.806,0-29.288c0-6.741,0-13.362,0-18.302s0-8.181,0-8.19v-0.497v-0.472
		l-0.189-0.882l-0.018-0.07l-0.008-0.042l-0.009-0.043c-0.137-0.686-0.849-4.202-1.51-8.465c-0.66-4.186-1.252-9.262-1.244-12.513
		v-0.043v-0.016v-0.069c-0.017-0.129,0.12-1.767,0.412-3.585v-0.018c0.918-6.097,3.207-16.895,5.548-27.418
		c3.714,1.047,8.148,2.273,12.968,3.543c6.355,1.672,13.293,3.413,19.837,4.863c6.569,1.44,12.684,2.606,17.787,3.121
		c24.176,2.419,43.009,4.889,73.146,4.889c6.655,0,13.85-0.12,21.775-0.378c23.782-0.798,41.5-6.32,53.344-11.818
		c3.31-1.535,6.106-3.045,8.507-4.468c4.494,10.326,10.172,18.628,15.617,24.836c4.632,5.292,9.048,9.212,12.187,11.87
		c0.532,0.446,0.986,0.832,1.432,1.2c-0.48,6.853-1.586,21.21-2.624,34.682c-0.601,7.848-1.192,15.395-1.629,20.995
		c-0.266,3.43-0.472,6.02-0.592,7.573l-9.656,21.14l6.32,4.332l0,0c0.763,0.531,2.753,1.749,6.329,2.958
		c3.508,1.183,8.465,2.239,14.768,2.298l0.095,0.026h0.472h0.043h0.043l0,0c3.67-0.009,7.135-0.558,10.317-1.801
		c2.41-0.952,4.588-2.29,6.44-3.962c2.796-2.539,4.631-5.669,5.72-8.816c1.072-3.131,1.441-6.278,1.45-9.306h0.008l0.104-1.081
		l0.008-0.042v-0.018c0.344-2.847,1.518-9.176,3.028-16.655c2.281-11.304,5.368-25.643,7.89-37.932
		c1.261-6.149,2.376-11.784,3.207-16.338c0.412-2.29,0.746-4.296,0.995-6.004v-0.042l0.009-0.009c0.214-1.69,0.403-3.113,0.42-4.683
		v-0.198l-0.128-1.578l-0.018-0.214l-0.034-0.205c-0.926-5.223-1.346-11.561-1.346-18.602v-0.197V310.51z M494.976,331.513
		c0,0.18-0.034,0.806-0.137,1.63c-0.386,3.242-1.561,9.588-3.087,17.17c-2.29,11.397-5.369,25.745-7.89,37.958
		c-1.252,6.115-2.376,11.69-3.182,16.14c-0.403,2.221-0.729,4.159-0.968,5.772c-0.232,1.639-0.378,2.856-0.386,4.056
		c0,1.682-0.197,3.2-0.566,4.434c-0.575,1.888-1.389,3.088-2.694,4.022c-1.321,0.926-3.405,1.69-6.895,1.698
		c-4.588-0.009-7.968-0.686-10.266-1.389l5.489-12.007l0.06-0.832c0.008,0,1.32-16.741,2.633-33.764
		c0.652-8.517,1.312-17.092,1.8-23.697c0.25-3.302,0.455-6.097,0.601-8.156c0.068-1.03,0.128-1.87,0.163-2.505l0.051-0.806
		l0.018-0.634l-0.292-1.69c-0.3-0.815-0.609-1.226-0.866-1.578l-1.346-1.415c-0.823-0.755-1.792-1.553-2.984-2.548
		c-4.126-3.456-10.806-9.202-17.049-17.975c-6.226-8.774-11.998-20.48-14.211-35.952l-9.34,1.338
		c0.472,3.336,1.115,6.509,1.87,9.545c-2.11,1.638-6.664,4.82-13.902,8.122c-10.317,4.708-25.977,9.605-47.495,10.317
		c-7.796,0.257-14.837,0.369-21.32,0.369c-29.356,0-47.298-2.368-71.775-4.812c-4.09-0.403-9.905-1.474-16.175-2.864
		c-9.425-2.085-19.956-4.863-28.113-7.118c-3.508-0.969-6.526-1.827-8.885-2.505c0.558-2.504,1.09-4.879,1.544-6.998
		c0.497-2.29,0.926-4.306,1.261-5.952c0.326-1.672,0.549-2.924,0.668-3.962l-9.373-1.038c-0.052,0.497-0.309,1.964-0.694,3.86
		c-1.364,6.715-4.34,19.537-6.973,31.612c-1.312,6.054-2.547,11.921-3.464,16.826c-0.455,2.453-0.832,4.665-1.098,6.569
		c-0.266,1.913-0.438,3.457-0.446,4.872c0.008,4.957,0.788,10.84,1.544,15.617c0.608,3.782,1.2,6.802,1.432,7.916
		c0,1.055,0,3.86,0,7.718c0,14.811,0,44.794,0,47.59c0,0.617-0.069,1.474-0.275,2.307l-0.677,1.792
		c-0.464,0.823-1.029,1.466-1.999,2.032c-0.978,0.549-2.478,1.038-4.974,1.046c-5.052,0-8.833-0.84-11.286-1.629l-0.12-0.043
		l3.182-10.78v-0.678c0,0,0-29.751,0-43.138c-0.018-4.211-1.098-8.525-2.788-13.139c-2.564-6.904-6.569-14.494-11.244-22.778
		c-2.701-4.794-5.651-9.837-8.662-15.043l0.678-0.918c8.258-13.756,25.951-37.744,17.692-54.262
		c-7.204-14.409-25.18-56.637-30.428-74.228c-0.078-3.927-0.104-8.207-0.104-12.684c4.297-12.401,17.787-34.39,22.273-45.111
		c4.845,1.775,9.965,3.516,15.403,5.094c10.008,2.891,22.898,5.6,36.552,7.925l0.043,1.424c0.009,5.069-1.055,11.132-2.728,17.521
		c-2.504,9.597-6.338,19.923-9.605,29.348c-1.638,4.726-3.131,9.219-4.236,13.37c-1.098,4.159-1.844,7.942-1.862,11.475
		c0.009,1.518,0.146,3.002,0.541,4.468c0.292,1.098,0.737,2.196,1.389,3.225c0.969,1.544,2.461,2.872,4.185,3.653
		c1.724,0.797,3.585,1.106,5.498,1.106c3.165-0.009,6.586-0.797,10.669-2.247c17.178-6.132,32.589-15.986,44.982-29.33
		c11.647-12.53,20.549-28.173,25.824-46.534c7.726,0.008,16.577,0.042,25.857,0.042c2.608,0,5.257,0,7.916-0.008l4.717,1.201
		c3.387,0.016,0.806,2.521,2.392,3.585c1.193,0.815,2.162,1.878,3.011,3.353c1.269,2.204,2.186,5.343,2.701,9.1
		c0.524,3.756,0.669,8.087,0.669,12.615c0,4.631-0.146,9.468-0.154,14.185c0.009,4.863,0.163,9.597,0.883,13.971
		c2.899,17.315,13.902,33.481,30.514,45.299c16.63,11.827,38.945,19.357,64.854,19.357c16.346,0,34.124-3.044,52.769-9.837
		c-0.154,1.981-0.309,3.962-0.464,5.935c-1.175,14.726-2.376,29.099-2.376,42.006C493.45,318.075,493.87,325.124,494.976,331.513z" style="fill: rgb(75, 75, 75);"></path>
</g>
</svg>
