<svg xmlns="http://www.w3.org/2000/svg" viewBox="0 0 293.66 52.7"><defs><style>.cls-1{fill:#16b1aa;}</style></defs><g id="圖層_2" data-name="圖層 2"><g id="圖層_1-2" data-name="圖層 1"><g id="圖層_2-2" data-name="圖層 2"><g id="圖層_1-2-2" data-name="圖層 1-2"><path class="cls-1" d="M200.76,35.91s2.07,10.73,0,11.53-7,0-7,0l.35-11.18c-1.3.8-6.94,0-6.94,0v-5c1.55.8,7-1.9,7-1.9V18.5h-4.47s-7.38,5.6-5.33,3.6,2.87-16.35,2.87-16.35l4.93,2.4V13l3.3.23L195,2.5h6.17v11h4v6h-4v9.58l5.76-.8C206.92,31.47,200.76,35.91,200.76,35.91Z"/><path class="cls-1" d="M234.15,15.8l-2.4-.8H217.39c-2.4,2.4-9.58,4.79-8,4S214.2.63,214.2.63c0-.8,6.21,0,6.21,0l-.63,7.24c1.6-.8,15.16,0,15.16,0C235.74,10.21,234.15,15.8,234.15,15.8Z"/><path class="cls-1" d="M231.75,48.66a36.93,36.93,0,0,1-12-6.5s-7.73,5.6-11.44,5.66c0,0,7.45-7.15,7.45-10.34l-4.79-8,3.2-3.2,5.58,4a78.6,78.6,0,0,0,3.2-8.77s5,0,6.1.8-4.66,12.15-4.66,12.15,7,6.91,10.75,7S231.75,48.66,231.75,48.66Z"/><path class="cls-1" d="M260.05,21.5h-6.24c.11,1.6.7,12.77.7,12.77l4-.8s-9.57,9.58-11.17,9.58-2.58-6.16-2.58-6.16l3.38-.86V21.5h-6v-7h6.56s-.78-7,.78-7.79,4.66.78,4.66.78v7.79l5.91.3A21.73,21.73,0,0,1,260.05,21.5Z"/><path class="cls-1" d="M286.45.36c-.45-.8-20.4,0-20.4,0s-.41,17.07,1,17.71,18.15.64,18.15.64S286.89,1.16,286.45.36Zm-12.81,4c.8-.8,5.59,0,6.75,0s-.36,2.4-.61,2.57-6.14,0-6.14,0Zm7,9.64h-7V11.8c0-1,7-.5,7-.5Z"/><path class="cls-1" d="M275.76,30.71,274.21,34c7,0,19.45.78,19.45.78,0,5.44-2.34,17.89-3.9,17.89s-5.45-3.1-5.18-3.9,2.86,0,2.86,0l.76-7.8h-3c.13.06-7.24,8.9-6.58,7s1.79-8,1.79-8h-3.79c-.11,1.34-8.2,7.2-6,5,1.78-1.79,1.8-6.8,1.8-7h-2.39c-3.2,4.2-10.38,5-7.19,3.39s4.51-11.63,4.51-11.63a13.56,13.56,0,0,0-3.71,0c-.8.33,0-5.91,0-5.91,0-1.6,30,.68,30,.68V31Z"/><path class="cls-1" d="M52.09,15.22l.17.89-4.47-.95,1.06,5.3c0-.2-1.66-.82-1.91-1-.77-.41-1.51-.86-2.23-1.34a14.85,14.85,0,0,1-3.84-3.53,9.06,9.06,0,0,1-1.44-3.31c-.53-2.38-.17-5,1.55-6.6,3-2.76,7.38.37,9,3.33C51.31,10.33,51.58,12.69,52.09,15.22Z"/><path class="cls-1" d="M34.4,36.49a9.86,9.86,0,0,1-5.26,9.19,26.05,26.05,0,0,1-14.29,3.14A71.31,71.31,0,0,1,.28,46.25l2.36-5.6c0-.07,6.67,1.4,7.31,1.49,3.82.58,8.18.88,11.65-1.11a8.57,8.57,0,0,0,4.18-5.26,4.53,4.53,0,0,0-.06-2.63A4.85,4.85,0,0,0,23,30.74c-6-2.49-13-2.42-18.44-6.28A10.74,10.74,0,0,1,.34,13H.28a11.35,11.35,0,0,1,7-9.56A22.56,22.56,0,0,1,14.41,2c5.83-.41,11.87.09,17.16,2.6-.76,1.87-1.52,3.73-2.3,5.6C24.73,8.88,19.06,7,14.27,8.37a5.29,5.29,0,0,0-.76.27c-2.31,1-4.33,3.33-4.09,5.88a5.89,5.89,0,0,0,3.14,4.37,10.63,10.63,0,0,0,1.87.8,21.46,21.46,0,0,0,3.45.76c4.6.72,9.36,2.06,12.63,5.63A15.62,15.62,0,0,1,34.4,36.49Z"/><path class="cls-1" d="M52.64,49V26.3a8.53,8.53,0,0,0-8.28,0L43.88,49h9.76"/><polyline class="cls-1" points="65.64 3.54 66.64 7.28 66.11 49 74.64 49 74.64 35.73 85.31 49 95.71 49 80.45 32.21 92.35 20.31 87.33 15.74 74.64 27.3 74.64 3 65.64 3"/><path class="cls-1" d="M103.64,3V48h9c0-4.3,0-9.06-.38-14-.24-2.73-.14-5.64,1.35-7.94a11.06,11.06,0,0,1,3.17-3,9,9,0,0,1,3.91-1.7,4.18,4.18,0,0,1,3.85,1.42,6.53,6.53,0,0,1,.92,3.72c.25,7.36.12,14.74.17,22.45h8.76c-.17-.34-.3-18.47-.34-20a20.31,20.31,0,0,0-1.72-8.35c-4.56-9.3-13.78-4.84-19.64.42V3.52c0-.53-7.31-.87-8-1"/><circle class="cls-1" cx="33.32" cy="15.75" r="1.99"/><path class="cls-1" d="M14.5,19.73a11.44,11.44,0,0,1-1.87-.8c-1.69-.87-3.71-2.05-4-3.93-.24-2.56,2.69-6,5-7C14.5,10.24,16.09,16.13,14.5,19.73Z"/><path class="cls-1" d="M169.16,20s-2-7-18.68-4.69L144.54,17l2,6.07s9-5.07,13.47-1.7c0,0,3,1.34,1.36,7.07,0,0-19-.18-19.75,8.66s3.54,13.4,10.83,12.3,9.43-4,9.43-4l1.24,3.27,7.34-2ZM151.64,41a1.21,1.21,0,1,1,.05,0h-.05Zm6-1.14a1.21,1.21,0,1,1,.05,0h-.05Z"/></g></g></g></g></svg>