<svg xmlns="http://www.w3.org/2000/svg" viewBox="0 0 294 52.64"><defs><style>.cls-1{fill:#16b1aa;}</style></defs><g id="圖層_2" data-name="圖層 2"><g id="圖層_1-2" data-name="圖層 1"><path class="cls-1" d="M200.64,35.93s2,10.73,0,11.53-6.81,0-6.81,0l.34-11.18c-1.26.8-6.72,0-6.72,0V31.49c1.59.8,7.18-1.9,7.18-1.9V18.73h-4.79c.08.17-6.93,6.13-5.19,3.59C186.25,20,187.45,6,187.45,6l4.79,2.4v4.79l3.22.23L195,2.76h6V13.94h4v5.58h-4V29.1l5.58-.8C206.6,31.49,200.64,35.93,200.64,35.93Z"/><path class="cls-1" d="M234.14,15.93l-2.4-.8H217.38c-2.35,2.42-9.49,4.83-8,4S214.19.76,214.19.76c0-.8,6.21,0,6.21,0L219.77,8c1.6-.8,15.16,0,15.16,0C235.73,10.34,234.14,15.93,234.14,15.93Z"/><path class="cls-1" d="M231.74,48.66a36.77,36.77,0,0,1-12-6.5s-7.73,5.6-11.44,5.66c0,0,7.45-7.15,7.45-10.34l-4.79-8,3.2-3.2,5.58,4a79.17,79.17,0,0,0,3.2-8.77s5,0,6.1.8-4.66,12.15-4.66,12.15,7,6.91,10.75,7S231.74,48.66,231.74,48.66Z"/><path class="cls-1" d="M260.18,21.52h-6c.11,1.6.7,12.77.7,12.77l4-.8s-9.57,9.58-11.17,9.58-2.58-6.16-2.58-6.16l3.38-.86V21.52h-6.75V14.33h6.75s-.8-7.18.8-8,4.79.8,4.79.8v8l6.08.31A22,22,0,0,1,260.18,21.52Z"/><path class="cls-1" d="M286.44.36c-.45-.8-20.4,0-20.4,0s-.41,17.07,1,17.71,18.15.64,18.15.64S286.88,1.16,286.44.36Zm-13.22,4c.8-.8,5.59,0,6.75,0s-.36,2.4-.61,2.57-6.14,0-6.14,0Zm7.18,10h-7.18V12.16c0-1,7.18-.5,7.18-.5Z"/><path class="cls-1" d="M275.64,30.08l-1.59,3.41c7.17,0,19.95.8,19.95.8,0,5.58-2.4,18.35-4,18.35s-5.59-3.18-5.31-4,2.93,0,2.93,0l.78-8h-3.19c-.8,5.59-7.18,8.79-6,7.15s1.21-8,1.21-8h-3.2c-4,7.19-9.57,6.42-7.18,5.59s2.39-7.18,2.39-7.18h-2.39c-3.2,4-10.38,4.79-7.19,3.19s4.51-11.63,4.51-11.63a13.52,13.52,0,0,0-3.71,0c-.8.33,0-5.91,0-5.91,0-1.6,30.33.68,30.33.68v5.85Z"/><path class="cls-1" d="M52.08,15.22l.17.89-4.47-.95,1.06,5.3c0-.2-1.66-.82-1.91-1a25.32,25.32,0,0,1-2.23-1.34,14.63,14.63,0,0,1-3.84-3.53,9.09,9.09,0,0,1-1.44-3.31c-.53-2.38-.17-5,1.55-6.6,3-2.76,7.38.37,9,3.33C51.3,10.33,51.57,12.69,52.08,15.22Z"/><path class="cls-1" d="M34.39,36.49a9.86,9.86,0,0,1-5.26,9.19,26,26,0,0,1-14.29,3.14A71.67,71.67,0,0,1,.27,46.25l2.36-5.6c0-.07,6.67,1.4,7.31,1.49,3.82.58,8.18.88,11.65-1.11a8.56,8.56,0,0,0,4.18-5.26,4.45,4.45,0,0,0-.06-2.63A4.82,4.82,0,0,0,23,30.74C17,28.25,10,28.32,4.56,24.46A10.73,10.73,0,0,1,.33,13L.27,13a11.35,11.35,0,0,1,7-9.56,22.67,22.67,0,0,1,7.13-1.43c5.83-.41,11.87.09,17.16,2.6-.76,1.87-1.52,3.73-2.3,5.6-4.54-1.33-10.21-3.17-15-1.84a5.76,5.76,0,0,0-.76.27c-2.31,1-4.33,3.33-4.09,5.88a5.91,5.91,0,0,0,3.14,4.37,10.63,10.63,0,0,0,1.87.8,21.46,21.46,0,0,0,3.45.76c4.6.72,9.36,2.06,12.63,5.63A15.6,15.6,0,0,1,34.39,36.49Z"/><path class="cls-1" d="M53,48.62V25.92a8.55,8.55,0,0,0-8.28,0l-.48,22.7h9.35"/><polyline class="cls-1" points="66.31 3.54 66.26 7.28 65.72 48.62 74.48 48.62 74.48 35.34 85.45 48.62 96.13 48.62 80.45 31.81 92.68 19.9 87.52 15.32 74.48 26.9 74.48 2.57 65.72 2.57"/><path class="cls-1" d="M103.79,2.57V48.62h8.79c0-4.92,0-9.68-.38-14.57-.24-2.73-.14-5.64,1.35-7.94a11.07,11.07,0,0,1,3.17-3,9.07,9.07,0,0,1,3.91-1.7,4.19,4.19,0,0,1,3.85,1.42,6.49,6.49,0,0,1,.92,3.72c.25,7.36.12,14.74.17,22.11h8.76c-.17,0-.3-18.13-.34-19.64a20.34,20.34,0,0,0-1.72-8.35c-4.56-9.3-13.78-4.84-19.46.42L112.6,3.52c0-.53-7.28-.87-8-1"/><circle class="cls-1" cx="33.31" cy="15.75" r="1.99"/><path class="cls-1" d="M14.49,19.73a10.63,10.63,0,0,1-1.87-.8,5.91,5.91,0,0,1-3.14-4.37C9.24,12,11.26,9.64,13.57,8.68,14.43,10.92,16.08,16.13,14.49,19.73Z"/><path class="cls-1" d="M169.15,20s-2-7-18.68-4.69L144.53,17l2,6.07S155.55,18,160,21.37c0,0,3,1.34,1.36,7.07,0,0-19-.18-19.75,8.66s3.54,13.4,10.83,12.3,9.43-4,9.43-4l1.24,3.27,7.34-2Zm-17.48,21a1.71,1.71,0,1,1,1.71-1.71A1.71,1.71,0,0,1,151.67,41.05Zm5.7-1.14a1.71,1.71,0,1,1,1.71-1.71A1.71,1.71,0,0,1,157.37,39.91Z"/></g></g></svg>