<svg xmlns="http://www.w3.org/2000/svg" viewBox="0 0 191.89 209.73"><g id="圖層_2" data-name="圖層 2"><g id="圖層_1-2" data-name="圖層 1"><path d="M80.38,0h21.71c.59.1,1.19.23,1.79.28C115,1.29,126.05,2,137.07,3.37a98.71,98.71,0,0,1,28,7.28c5.94,2.61,10.07,6.67,12.07,13,2.65,8.45,3.76,17.15,4.79,25.88a1.94,1.94,0,0,0,1.75,2,10,10,0,0,1,8.14,9.92c.12,7,.09,14.06,0,21.09a9.64,9.64,0,0,1-5.75,9,2.54,2.54,0,0,0-1.61,2.81c.12,17.19.25,34.39.25,51.59,0,11.25-.22,22.51-.36,33.77,0,3-1.15,4.69-4,5.39a37.2,37.2,0,0,1-6.26.62c-1,.08-2.11,0-3.3,0,0,4.42,0,8.58,0,12.73,0,3.18-.92,6-3.47,7.94-4.81,3.71-10.12,4.19-15.63,1.86-5.09-2.16-6.77-6.28-6.48-11.59.2-3.59,0-7.2,0-10.91H50.48c0,4.37.18,8.66-.08,12.93a12.51,12.51,0,0,1-1.77,5.91c-2.94,4.46-9.83,6.15-15.73,4.26C27.36,207.13,25,203.69,25,197.3V185.8c-.92-.05-1.59-.12-2.26-.11-2.32,0-4.64.07-6.95.14-4.13.14-7.13-3.1-7.5-8.32-.45-6.39-1.05-12.8-1.12-19.2C7,136.89,7,115.46,6.92,94a2.61,2.61,0,0,0-1.57-2.67A9.73,9.73,0,0,1,.07,82.7C0,75.6,0,68.5.08,61.41a10.06,10.06,0,0,1,7.65-9.72c1.32-.35,1.64-.91,1.85-2.17C11,40.65,12.42,31.77,14.17,23a16.85,16.85,0,0,1,9.71-12.43,69.7,69.7,0,0,1,7.53-3.16C43.73,3.24,56.54,1.9,69.4.82,73.05.51,76.72.27,80.38,0ZM30.67,42V109.6h129V42Zm112.26-22.5H47.43V33.74h95.5ZM48.69,142.07A13.55,13.55,0,1,0,62.26,155.6,13.62,13.62,0,0,0,48.69,142.07Zm93.73,27.1a13.55,13.55,0,1,0-13.54-13.55A13.66,13.66,0,0,0,142.42,169.17Z"/></g></g></svg>