<svg xmlns="http://www.w3.org/2000/svg" viewBox="0 0 273.11 193.35"><g id="圖層_2" data-name="圖層 2"><g id="圖層_1-2" data-name="圖層 1"><path d="M0,62.51c1.72-4,4.81-5.47,9.13-5.35,7.37.19,14.76,0,22.14.1,1.84,0,2.6-.63,3.3-2.23,3.09-7,6.24-13.93,9.53-20.81C50.31,21.25,60.81,13.44,74.28,9a186.43,186.43,0,0,1,46-8.44,241.54,241.54,0,0,1,49.49,1.67,142,142,0,0,1,37.68,10.18c10,4.37,16.64,12,21.47,21.38,3.57,6.93,6.65,14.13,9.8,21.27A3,3,0,0,0,242,57.26c7.64-.12,15.29-.07,22.94,0,6.22,0,9.09,3.58,7.86,9.67-1.12,5.57-2.24,11.14-3.41,16.7-1,4.66-3.44,6.64-8.2,6.69-2.21,0-4.42,0-7,0,.64.92,1,1.57,1.49,2.15a48.08,48.08,0,0,1-3.2,62.73,6.31,6.31,0,0,0-1.55,3.91c-.14,7.64,0,15.29-.08,22.94,0,7-4.26,11.27-11.3,11.31q-11.47.06-22.95,0c-6.93,0-11.1-4.2-11.19-11.12-.05-3.19,0-6.39,0-9.84H67.87c0,3.4,0,6.68,0,9.95-.11,6.77-4.27,10.95-11,11-7.64.06-15.29.05-22.94,0-7.25,0-11.43-4.2-11.46-11.41,0-7.91,0-15.83-.07-23.74A5,5,0,0,0,21.06,155c-16.55-16-18.21-44.57-3.6-62.91.32-.41.58-.86,1.19-1.75H12.58c-5.48,0-7.73-1.91-8.85-7.21C2.54,77.46,1.25,71.86,0,66.25Zm221,5.63c-1.38-5.89-8.52-21.77-12.28-27.74a21.68,21.68,0,0,0-8.58-8.11c-8.22-4.25-17-6.6-26-8.22A217.1,217.1,0,0,0,113.8,22c-12.58,1.25-25,3.44-36.74,8.35-5.77,2.41-10.7,5.76-13.4,11.52-3.91,8.35-7.54,16.83-11.27,25.26-.12.26,0,.64.06,1Zm13.91,55.79a20.59,20.59,0,1,0-20.55,20.5A20.7,20.7,0,0,0,234.89,123.93ZM60.37,144.31a20.54,20.54,0,0,0-2-41c-12.66.69-20.26,11-19.64,21.29C39.42,136.67,49.17,145.26,60.37,144.31Z"/></g></g></svg>