<svg width="60" height="60" viewBox="0 0 60 60" fill="none" xmlns="http://www.w3.org/2000/svg">
<path d="M48.022 25.7786C48.011 25.4831 48.1181 25.1953 48.3197 24.9781C48.5213 24.761 48.8011 24.6323 49.0978 24.6201H49.8307L50.0056 23.4884V23.2942C50.0056 21.0508 47.9345 19.2226 45.366 19.1624L43.3487 21.2986C43.3004 21.3533 43.2463 21.4027 43.1874 21.4459H45.2584C46.6032 21.4459 47.8068 22.2562 47.874 23.1937L45.4197 39.0111V39.1986C45.4197 40.1696 44.196 41.0201 42.7974 41.0201H14.4487C13.0569 41.0201 11.8331 40.1696 11.8331 39.1986V39.1049L9.37207 23.2205C9.43931 22.283 10.6295 21.4459 11.9877 21.4459H42.0846C42.0053 21.3979 41.9329 21.3393 41.8694 21.2718C41.6644 21.0474 41.5507 20.7549 41.5507 20.4514C41.5507 20.148 41.6644 19.8555 41.8694 19.6311L42.3401 19.1289H20.413C20.5269 19.3058 20.5936 19.5088 20.6065 19.7186C20.6195 19.9284 20.5783 20.1381 20.4869 20.3276C20.4038 20.5111 20.2698 20.6672 20.1006 20.7775C19.9315 20.8878 19.7343 20.9478 19.5321 20.9503C19.3582 20.9502 19.187 20.9065 19.0345 20.8231L16.0087 19.1289H11.9743C9.33845 19.1289 7.2002 20.9838 7.2002 23.2674V23.3678L9.68137 39.3058C9.73517 41.2746 11.3893 42.9018 13.5477 43.2635C13.968 42.6322 14.537 42.113 15.205 41.7512C15.8731 41.3893 16.62 41.1958 17.3804 41.1875C18.1544 41.1978 18.9136 41.3997 19.5897 41.7749C20.2658 42.1502 20.8375 42.687 21.2535 43.3371H35.9792C36.384 42.6858 36.9477 42.1471 37.6178 41.7712C38.2879 41.3952 39.0426 41.1942 39.8117 41.1869C40.5808 41.1795 41.3392 41.366 42.0164 41.7291C42.6937 42.0922 43.2676 42.62 43.6849 43.2635C45.8501 42.9018 47.4975 41.2545 47.558 39.3058L49.4744 26.9438H49.0978C48.8005 26.9299 48.5208 26.7997 48.3193 26.5815C48.1179 26.3633 48.011 26.0748 48.022 25.7786ZM14.4487 43.6719H21.2535C21.8409 44.5553 22.1521 45.5924 22.1478 46.6519C22.1478 49.4846 20.0095 51.7882 17.3804 51.7882C14.7513 51.7882 12.6063 49.4846 12.6063 46.6519C12.601 45.5624 12.9294 44.4972 13.5477 43.5983C13.8456 43.6464 14.1469 43.671 14.4487 43.6719ZM14.758 46.6519C14.7326 47.3716 14.994 48.072 15.4854 48.6002C15.9767 49.1285 16.658 49.4416 17.3804 49.4712C18.0891 49.4115 18.7494 49.089 19.2306 48.5675C19.7119 48.046 19.9789 47.3636 19.9789 46.6553C19.9789 45.947 19.7119 45.2645 19.2306 44.743C18.7494 44.2215 18.0891 43.899 17.3804 43.8394C16.6586 43.8673 15.9773 44.1789 15.4858 44.7061C14.9943 45.2333 14.7326 45.933 14.758 46.6519ZM17.3804 41.1875C16.62 41.1958 15.8731 41.3893 15.205 41.7512C14.537 42.113 13.968 42.6322 13.5477 43.2635C13.8456 43.3115 14.1469 43.3362 14.4487 43.3371H21.2535C20.8375 42.687 20.2658 42.1502 19.5897 41.7749C18.9136 41.3997 18.1544 41.1978 17.3804 41.1875ZM42.7839 43.6719C43.0858 43.6715 43.3871 43.6469 43.6849 43.5983C44.3056 44.4964 44.6364 45.5617 44.633 46.6519C44.633 49.4846 42.4948 51.7882 39.8589 51.7882C37.2231 51.7882 35.1185 49.4846 35.1185 46.6519C35.1169 45.5928 35.4279 44.5565 36.0128 43.6719H42.7839ZM42.4746 46.6519C42.4341 46.1459 42.2464 45.6626 41.9344 45.2612C41.6225 44.8597 41.1998 44.5575 40.7182 44.3915C40.2365 44.2255 39.7167 44.2028 39.2223 44.3264C38.7279 44.4499 38.2804 44.7143 37.9345 45.0871C37.5886 45.46 37.3592 45.9251 37.2746 46.4257C37.1899 46.9263 37.2536 47.4406 37.4577 47.9057C37.6619 48.3708 37.9978 48.7666 38.4242 49.0446C38.8507 49.3227 39.3492 49.4709 39.8589 49.4712C40.2167 49.4574 40.5681 49.3735 40.8933 49.2243C41.2184 49.0751 41.5108 48.8635 41.7537 48.6017C41.9967 48.3398 42.1854 48.0328 42.3091 47.6983C42.4328 47.3637 42.489 47.0082 42.4746 46.6519ZM39.8589 41.1875C39.0846 41.2003 38.3254 41.4031 37.6486 41.7781C36.9718 42.1531 36.3984 42.6886 35.9792 43.3371H42.7839C43.0858 43.3367 43.3871 43.3121 43.6849 43.2635C43.2657 42.6327 42.6979 42.1138 42.031 41.7519C41.3641 41.3901 40.6184 41.1963 39.8589 41.1875ZM20.0297 18.7673L12.3307 14.4814C12.2055 14.4173 12.0686 14.3793 11.9283 14.3696C11.7879 14.36 11.647 14.3789 11.5142 14.4253C11.3815 14.4717 11.2596 14.5445 11.156 14.6394C11.0525 14.7342 10.9694 14.8491 10.9119 14.977C10.7789 15.247 10.7521 15.5567 10.8367 15.8454C10.9213 16.1341 11.1112 16.3809 11.3691 16.5373L16.076 19.1557H20.4802C20.3679 18.9881 20.2123 18.854 20.0297 18.7673ZM19.5321 20.957C19.7343 20.9545 19.9315 20.8945 20.1006 20.7842C20.2698 20.6739 20.4038 20.5178 20.4869 20.3343C20.5783 20.1448 20.6195 19.9351 20.6065 19.7253C20.5936 19.5155 20.5269 19.3125 20.413 19.1356H16.0087L19.0345 20.8298C19.1851 20.9202 19.3564 20.9709 19.5321 20.9771V20.957ZM42.6293 21.6267C42.829 21.6221 43.0231 21.5592 43.1874 21.4459H42.0846C42.2434 21.5619 42.4326 21.6293 42.6293 21.6401V21.6267ZM45.3861 19.149L48.3245 15.9882C48.5254 15.7617 48.6363 15.47 48.6363 15.1678C48.6363 14.8657 48.5254 14.5739 48.3245 14.3475C48.2287 14.2403 48.1111 14.1545 47.9796 14.0958C47.848 14.037 47.7055 14.0066 47.5614 14.0066C47.4172 14.0066 47.2747 14.037 47.1432 14.0958C47.0116 14.1545 46.8941 14.2403 46.7982 14.3475L42.3401 19.1423H45.3861V19.149ZM41.8425 21.2986C41.906 21.3661 41.9784 21.4246 42.0577 21.4727H43.1874C43.2667 21.4246 43.3391 21.3661 43.4025 21.2986L45.4197 19.1624H42.3401L41.8694 19.6646C41.6625 19.8853 41.5452 20.1746 41.5403 20.4764C41.5353 20.7783 41.643 21.0713 41.8425 21.2986ZM35.7237 16.5038C35.7797 16.7355 35.9108 16.9425 36.0968 17.0926C36.2828 17.2426 36.5132 17.3276 36.7524 17.3342C36.8574 17.335 36.9618 17.3192 37.0617 17.2873L43.221 15.2783C43.5034 15.1736 43.7355 14.966 43.8702 14.6976C44.005 14.4291 44.0325 14.1197 43.9472 13.8318C43.9138 13.6907 43.8519 13.5579 43.7652 13.4415C43.6785 13.3251 43.5688 13.2275 43.4429 13.1548C43.317 13.082 43.1775 13.0357 43.033 13.0185C42.8884 13.0014 42.7419 13.0138 42.6024 13.055L36.4431 15.064C36.1654 15.1711 35.939 15.3797 35.8104 15.6472C35.6817 15.9148 35.6603 16.2211 35.7505 16.5038H35.7237ZM33.1551 15.2582C33.2407 15.3734 33.3497 15.4693 33.4749 15.5399C33.6001 15.6105 33.7388 15.6542 33.882 15.6681C34.0252 15.6819 34.1698 15.6658 34.3063 15.6205C34.4429 15.5753 34.5684 15.5021 34.6747 15.4056L38.3931 12.0706C38.6139 11.863 38.7503 11.5818 38.7763 11.2804C38.8023 10.9791 38.7162 10.6788 38.5343 10.4367C38.4493 10.3206 38.3406 10.2238 38.2154 10.1526C38.0902 10.0814 37.9512 10.0374 37.8077 10.0235C37.6641 10.0096 37.5193 10.0261 37.3826 10.0719C37.2459 10.1177 37.1205 10.1918 37.0147 10.2893L33.3164 13.5975L33.2156 13.7113C33.1786 13.9183 33.0883 14.1121 32.9533 14.2738C32.9177 14.4446 32.9196 14.6211 32.9591 14.791C32.9986 14.961 33.0746 15.1204 33.182 15.2582H33.1551ZM31.1378 13.9189C31.2058 14.1371 31.3412 14.3284 31.5247 14.4655C31.7082 14.6026 31.9305 14.6785 32.1599 14.6823C32.2768 14.6819 32.3928 14.6615 32.5028 14.622C32.6783 14.5554 32.8335 14.4446 32.9533 14.3006C32.9888 14.0932 33.0793 13.8989 33.2156 13.7381C33.2514 13.544 33.2398 13.3442 33.182 13.1555L31.9515 9.1777C31.9129 9.04082 31.8472 8.913 31.7583 8.8018C31.6694 8.6906 31.559 8.59826 31.4337 8.53022C31.3083 8.46219 31.1706 8.41985 31.0285 8.40569C30.8865 8.39153 30.743 8.40584 30.6066 8.44777C30.3285 8.56142 30.1042 8.77625 29.9793 9.04864C29.8544 9.32103 29.8383 9.63055 29.9342 9.91433L31.1378 13.9189ZM33.2156 13.7649C33.0793 13.9257 32.9888 14.1199 32.9533 14.3274C33.0926 14.1581 33.1832 13.9545 33.2156 13.7381V13.7649ZM25.3753 13.1421L27.527 14.7962C27.7052 14.9366 27.9251 15.0143 28.1524 15.0171C28.334 15.0204 28.5135 14.9771 28.6736 14.8915C28.8337 14.8059 28.9691 14.6809 29.0668 14.5283C29.2351 14.2757 29.3029 13.9698 29.2569 13.6701C29.2109 13.3705 29.0544 13.0987 28.818 12.9077L26.626 11.2537C26.5123 11.1665 26.3816 11.104 26.2422 11.0701C26.1029 11.0362 25.9579 11.0318 25.8167 11.057C25.6755 11.0822 25.5412 11.1366 25.4223 11.2166C25.3034 11.2966 25.2027 11.4004 25.1265 11.5215C24.9582 11.7741 24.8905 12.08 24.9365 12.3797C24.9825 12.6793 25.1389 12.9512 25.3753 13.1421ZM19.3237 15.2047L22.6857 17.2136C22.8429 17.305 23.0215 17.3535 23.2035 17.3543C23.4016 17.3492 23.5946 17.2904 23.7617 17.1842C23.9287 17.078 24.0635 16.9284 24.1515 16.7516C24.2877 16.4827 24.3191 16.1731 24.2397 15.8825C24.1602 15.5919 23.9755 15.3409 23.7212 15.1779L20.3592 13.1689C20.2339 13.097 20.095 13.0518 19.9512 13.0362C19.8074 13.0207 19.662 13.0351 19.5241 13.0785C19.3862 13.122 19.259 13.1935 19.1504 13.2886C19.0418 13.3838 18.9542 13.5003 18.8933 13.6309C18.7556 13.8996 18.7234 14.2097 18.803 14.5007C18.8825 14.7917 19.0682 15.0427 19.3237 15.2047ZM17.0711 16.3364C17.3678 16.3242 17.6476 16.1954 17.8492 15.9783C18.0508 15.7612 18.1579 15.4734 18.147 15.1779V11.5349C18.1587 11.3866 18.1396 11.2375 18.0907 11.097C18.0418 10.9565 17.9642 10.8275 17.8628 10.7183C17.7615 10.609 17.6385 10.5219 17.5017 10.4622C17.3648 10.4026 17.2171 10.3719 17.0678 10.3719C16.9184 10.3719 16.7707 10.4026 16.6338 10.4622C16.497 10.5219 16.3741 10.609 16.2727 10.7183C16.1713 10.8275 16.0938 10.9565 16.0449 11.097C15.996 11.2375 15.9768 11.3866 15.9885 11.5349V15.1779C15.9831 15.3248 16.0069 15.4713 16.0584 15.609C16.1099 15.7467 16.1881 15.873 16.2887 15.9806C16.3892 16.0882 16.5101 16.175 16.6443 16.2361C16.7786 16.2971 16.9236 16.3312 17.0711 16.3364ZM13.9512 14.7024C14.0057 14.8362 14.0879 14.957 14.1923 15.0572C14.2967 15.1573 14.4211 15.2345 14.5574 15.2837C14.6936 15.333 14.8388 15.3531 14.9834 15.343C15.128 15.3328 15.2688 15.2925 15.3968 15.2247C15.6582 15.0715 15.8524 14.8262 15.9408 14.5372C16.0292 14.2483 16.0054 13.9368 15.8742 13.6644L14.6437 10.9858C14.5851 10.8556 14.5002 10.7388 14.3942 10.6428C14.2882 10.5468 14.1635 10.4735 14.0278 10.4277C13.8922 10.3818 13.7485 10.3643 13.6057 10.3762C13.4629 10.3881 13.3242 10.4292 13.1981 10.4969C12.9345 10.6515 12.7386 10.8988 12.649 11.1901C12.5594 11.4814 12.5825 11.7955 12.7139 12.0706L13.9512 14.7024ZM49.6559 25.7786L49.4744 26.9438H51.8278C51.6334 26.5804 51.5037 26.1861 51.4445 25.7786H49.6559ZM51.4445 25.7786C51.4343 25.6136 51.4343 25.4481 51.4445 25.2831C51.4436 25.0584 51.4639 24.8342 51.505 24.6134H49.8307L49.6559 25.7719L51.4445 25.7786ZM49.0978 25.7786H49.6559L49.8307 24.6201H49.0978C48.8037 24.6423 48.5289 24.7744 48.3284 24.9898C48.1279 25.2053 48.0165 25.4882 48.0165 25.782C48.0165 26.0757 48.1279 26.3586 48.3284 26.5741C48.5289 26.7895 48.8037 26.9216 49.0978 26.9438H49.4744L49.6559 25.7786H49.0978ZM55.4117 25.2831C55.4171 25.1576 55.3975 25.0323 55.354 24.9145C55.3106 24.7966 55.2441 24.6885 55.1585 24.5963C55.0728 24.5042 54.9697 24.4299 54.855 24.3776C54.7404 24.3254 54.6165 24.2963 54.4905 24.292C54.3452 24.293 54.2024 24.3296 54.0746 24.3985C53.9468 24.4674 53.8379 24.5665 53.7576 24.6871C53.9768 24.773 54.1645 24.9236 54.2955 25.1186C54.4265 25.3137 54.4945 25.544 54.4905 25.7786C54.4889 25.9465 54.4547 26.1125 54.3896 26.2675H54.4905C54.7432 26.257 54.9815 26.1478 55.154 25.9636C55.3264 25.7793 55.419 25.5348 55.4117 25.2831ZM53.7576 24.6871C53.6317 24.8606 53.5635 25.069 53.5626 25.2831C53.5566 25.5193 53.6373 25.7495 53.7895 25.9308C53.9418 26.112 54.1551 26.2317 54.3896 26.2675C54.4547 26.1125 54.4889 25.9465 54.4905 25.7786C54.4945 25.544 54.4265 25.3137 54.2955 25.1186C54.1645 24.9236 53.9768 24.773 53.7576 24.6871ZM54.4905 21.9682C53.7527 21.9942 53.0471 22.2762 52.4959 22.7653C51.9446 23.2544 51.5822 23.9199 51.4714 24.6469H52.601C52.7143 24.2275 52.9609 23.8561 53.304 23.588C53.647 23.32 54.068 23.1699 54.5039 23.1602C55.0564 23.1909 55.5762 23.4311 55.9564 23.8315C56.3366 24.2319 56.5485 24.7621 56.5485 25.3132C56.5485 25.8643 56.3366 26.3945 55.9564 26.7949C55.5762 27.1952 55.0564 27.4354 54.5039 27.4661C54.0309 27.4654 53.5753 27.2887 53.2264 26.9706H51.8278C52.0818 27.4645 52.4668 27.8798 52.9409 28.1713C53.415 28.4629 53.9602 28.6197 54.5174 28.6247C55.3665 28.5898 56.1671 28.2215 56.7442 27.6003C57.3213 26.9791 57.628 26.1556 57.597 25.3098C57.6159 24.8867 57.5503 24.464 57.404 24.0662C57.2577 23.6685 57.0335 23.3037 56.7446 22.9928C56.4556 22.682 56.1076 22.4314 55.7207 22.2555C55.3337 22.0796 54.9156 21.982 54.4905 21.9682ZM52.5405 25.7786H51.4445C51.5037 26.1861 51.6334 26.5804 51.8278 26.9438H53.2129C52.8721 26.6349 52.6369 26.2274 52.5405 25.7786ZM51.4445 25.7786H52.5405C52.505 25.6158 52.4869 25.4497 52.4867 25.2831C52.4851 25.056 52.5191 24.83 52.5876 24.6134H51.4714C51.4302 24.8342 51.41 25.0584 51.4109 25.2831C51.4118 25.4488 51.423 25.6143 51.4445 25.7786ZM53.7576 24.6871C53.8379 24.5665 53.9468 24.4674 54.0746 24.3985C54.2024 24.3296 54.3452 24.293 54.4905 24.292C54.758 24.292 55.0145 24.3978 55.2037 24.5862C55.3928 24.7745 55.4991 25.03 55.4991 25.2964C55.4991 25.5629 55.3928 25.8184 55.2037 26.0067C55.0145 26.1951 54.758 26.3009 54.4905 26.3009H54.3896C54.3088 26.4953 54.173 26.6622 53.9987 26.7811C53.8244 26.9 53.6191 26.9658 53.4079 26.9706H53.2129C53.5618 27.2887 54.0175 27.4654 54.4905 27.4661C55.043 27.4354 55.5627 27.1952 55.9429 26.7949C56.3232 26.3945 56.535 25.8643 56.535 25.3132C56.535 24.7621 56.3232 24.2319 55.9429 23.8315C55.5627 23.4311 55.043 23.1909 54.4905 23.1602C54.0604 23.1711 53.6451 23.3186 53.3051 23.5813C52.9652 23.8439 52.7185 24.2079 52.601 24.6201H53.4079C53.5275 24.6223 53.6457 24.6449 53.7576 24.6871ZM52.5405 25.7786C52.6369 26.2274 52.8721 26.6349 53.2129 26.9438H53.4079C53.6191 26.939 53.8244 26.8732 53.9987 26.7543C54.173 26.6354 54.3088 26.4686 54.3896 26.2742C54.1551 26.2384 53.9418 26.1187 53.7895 25.9375C53.6373 25.7562 53.5566 25.526 53.5626 25.2898C53.5635 25.0757 53.6317 24.8673 53.7576 24.6938C53.6457 24.6516 53.5275 24.629 53.4079 24.6268H52.601C52.5325 24.8434 52.4985 25.0694 52.5002 25.2964C52.4969 25.4581 52.5104 25.6197 52.5405 25.7786Z" fill="#16B1AA"/>
</svg>
