<svg xmlns="http://www.w3.org/2000/svg" viewBox="0 0 250.52 250.54"><g id="圖層_2" data-name="圖層 2"><g id="圖層_1-2" data-name="圖層 1"><g id="clock"><path d="M0,132.63V118c.15-.86.32-1.72.45-2.59.78-5.4,1.23-10.86,2.39-16.17,6.53-30.08,22-54.73,46.49-73.29C79.81,2.81,114.14-4.85,151.58,3c30,6.25,54.32,22,72.95,46.17,20.12,26.15,28.49,55.93,25.34,88.71a121,121,0,0,1-30.56,70c-19.4,21.95-43.57,35.62-72.45,40.75-4.72.84-9.5,1.31-14.25,1.95H117.93a15.5,15.5,0,0,0-1.89-.4,119.19,119.19,0,0,1-54.65-17.23C28.94,213,9,184.35,2,146.84,1.07,142.15.64,137.37,0,132.63ZM125.3,19.5A105.85,105.85,0,0,0,19.46,125.2c-.13,58.26,47.2,105.69,105.66,105.89s106-47.42,106-105.83A105.86,105.86,0,0,0,125.3,19.5Z"/><path d="M115.53,96.83c0-9.46-.06-18.91,0-28.37.07-7.4,6.6-12.12,13.16-9.65,4,1.5,6.29,5.1,6.3,10.07,0,16.56,0,33.11,0,49.66a4.81,4.81,0,0,0,2.25,4.4c10.74,7.94,21.42,16,32.09,24,3.82,2.88,5.23,6.71,4.12,10.67a9.64,9.64,0,0,1-15.26,5.17C152,158.38,146,153.75,140,149.2c-6.46-4.84-12.85-9.76-19.38-14.5a11.61,11.61,0,0,1-5.07-10.23C115.59,115.26,115.53,106,115.53,96.83Z"/></g></g></g></svg>