<svg xmlns="http://www.w3.org/2000/svg" viewBox="0 0 252.56 252.52"><defs><style>.cls-1{fill:#fff;}</style></defs><g id="圖層_2" data-name="圖層 2"><g id="圖層_1-2" data-name="圖層 1"><path class="cls-1" d="M134.18,252.52H118.39c-3.08-.38-6.17-.71-9.24-1.15a124.3,124.3,0,0,1-66.32-30.53C20.9,201.37,7.21,177.15,2,148.25c-.85-4.67-1.32-9.4-2-14.1V118.36c.38-3.08.7-6.17,1.14-9.25,3.58-25,13.47-47.12,30.25-66C55.81,15.75,86.51,1.25,123.23.07,147.11-.7,169.64,4.9,190,17.4c39.29,24.09,60.42,59.37,62.43,105.51a117.93,117.93,0,0,1-17.51,67.46c-20,32.89-49,53.07-86.9,60.21C143.46,251.45,138.8,251.88,134.18,252.52Zm3-48.77V130.59H157.7c.88-8.65,1.75-17.09,2.63-25.76H137.15c0-4.78,0-9.28,0-13.78,0-6.61,1.87-8.47,8.51-8.48h14.13V57.71a4.09,4.09,0,0,0-1-.26c-7.89,0-15.8-.42-23.66,0-15.91.93-25.3,8.89-27.71,23.93-1.06,6.67-.57,13.59-.78,20.4,0,.94,0,1.88,0,3.13H92.39v25.82h14.32v73Z"/></g></g></svg>