<svg xmlns="http://www.w3.org/2000/svg" viewBox="0 0 238.62 238.66"><defs><style>.cls-1{fill:#fff;}</style></defs><g id="圖層_2" data-name="圖層 2"><g id="圖層_1-2" data-name="圖層 1"><g id="IG"><path class="cls-1" d="M119.28,238.66A119.33,119.33,0,1,1,238.62,119.42,119.38,119.38,0,0,1,119.28,238.66ZM192.8,119.43H193c0-8.9.06-17.81,0-26.72a76,76,0,0,0-.69-10.45C190,67,182.45,55.61,167.65,49.83a52.6,52.6,0,0,0-19.13-3.44q-28-.12-56.06,0a74.66,74.66,0,0,0-11.86.91c-15,2.5-26.18,10.18-31.75,24.83a52.2,52.2,0,0,0-3.23,18.69c0,18.53,0,37.06,0,55.59a69.61,69.61,0,0,0,.71,10.21c2.2,14.17,9,25.16,22.42,31.28a50.51,50.51,0,0,0,20.85,4.35q29.7.17,59.4,0a49.71,49.71,0,0,0,22.14-5c14.27-7.15,20.55-19.54,21.5-34.71C193.35,141.57,192.8,130.49,192.8,119.43Z"/><path class="cls-1" d="M119.37,60.17c9.71,0,19.41-.09,29.11.06a47,47,0,0,1,9.68,1.13c11.71,2.67,19.28,11.21,20.77,23.21a62.44,62.44,0,0,1,.49,7.85c.05,18.29.16,36.59-.07,54.89a44.09,44.09,0,0,1-2.17,13.3c-3.68,10.89-12,16.69-23.12,17.31-13.88.77-27.81.7-41.72.74-9.22,0-18.47,0-27.65-.69-14-1-23.45-10.53-25.06-24.6a70.06,70.06,0,0,1-.44-7.37c0-18.38-.15-36.76.08-55.13A42.7,42.7,0,0,1,61.45,78c3.69-10.9,12-16.49,23.12-17.33,9.66-.73,19.38-.56,29.08-.77,1.9,0,3.81,0,5.72,0Zm-.21,98a38.79,38.79,0,1,0-38.63-39.19A38.7,38.7,0,0,0,119.16,158.12Zm39.3-69.67a7.72,7.72,0,1,0-7.89-7.52A7.72,7.72,0,0,0,158.46,88.45Z"/><path class="cls-1" d="M119.65,94.32A25,25,0,1,1,94.3,119,24.93,24.93,0,0,1,119.65,94.32Z"/></g></g></g></svg>