<svg xmlns="http://www.w3.org/2000/svg" viewBox="0 0 236.92 236.94"><g id="圖層_2" data-name="圖層 2"><g id="圖層_1-2" data-name="圖層 1"><g id="map"><path d="M55.53,0c4,.92,8,1.5,11.87,2.82,35.24,12.11,46,56.57,20.13,83.36C75.79,98.32,63.69,110.1,51.75,122.05c-.21.21-.46.39-.84.71-.62-.59-1.24-1.14-1.82-1.72C38.07,110,27.11,99,16,88,7.27,79.37,1.83,69.13.39,56.85A9,9,0,0,0,0,55.53V46.28c.15-.59.34-1.18.43-1.78,3-19.36,13.47-33,31.44-40.67C36.4,1.9,41.46,1.24,46.28,0ZM50.6,103.26a7.58,7.58,0,0,0,.93-.61c8.82-8.83,17.83-17.5,26.41-26.56,8.44-8.9,11.47-19.73,9.38-31.8A37,37,0,0,0,19.65,31.1c-8.13,12.7-8.21,29.77,1.46,41.37C30.2,83.37,40.74,93.07,50.6,103.26Z"/><path d="M166,236.92h-1.82c-25.14,0-50.28.05-75.42,0a44.66,44.66,0,0,1-43.61-34.6C39.06,177,56.77,151,82.55,148.18c10-1.09,20.17-.43,30.26-.6a25.32,25.32,0,0,0,4.36-.36,13.7,13.7,0,0,0-.71-27,28.46,28.46,0,0,0-3.92-.25c-8.25,0-16.49,0-24.91,0V106.39c.19-.1.33-.23.46-.23,9.94.07,19.92-.39,29.81.37,13.52,1,24,13.25,24.16,26.88.12,13.87-10,26.06-23.64,27.6-6.56.74-13.24.32-19.86.47-5.16.12-10.39-.17-15.45.58-14.62,2.16-25.46,15.65-25.25,30.86.2,14.73,11.62,27.74,26.12,29.7a42.66,42.66,0,0,0,5.76.4q36.66,0,73.33,0H166Z"/><path d="M200,236.91c-.52-.46-.81-.7-1.08-1-8.45-8.45-17-16.77-25.3-25.38-10-10.41-13.26-22.87-9.06-36.67s13.65-22.24,27.64-25.47a37,37,0,0,1,36.09,59.9c-1,1.18-2.07,2.29-3.16,3.38C216.82,220.06,208.49,228.4,200,236.91Zm0-20.18c5.77-5.65,11.95-11.13,17.46-17.23,8.18-9.06,7.29-23-1.51-31.53a23,23,0,0,0-31.61-.44c-9.11,8.4-10.38,22.44-2.24,31.63C187.64,205.42,194,210.93,200,216.73Z"/><path d="M50.91,74A23.13,23.13,0,1,1,74,51,23.22,23.22,0,0,1,50.91,74Zm0-32.38a9.25,9.25,0,1,0,9.26,9.23A9.29,9.29,0,0,0,50.9,41.65Z"/></g></g></g></svg>