<svg width="52" height="50" viewBox="0 0 52 50" fill="none" xmlns="http://www.w3.org/2000/svg">
<path d="M32.9712 28.9066C30.5864 28.9066 29.4397 30.2087 25.526 30.2087C21.6123 30.2087 20.4739 28.9066 18.0808 28.9066C11.9153 28.9066 6.91309 33.8057 6.91309 39.8441V41.9274C6.91309 44.084 8.6996 45.8337 10.9016 45.8337H40.1505C42.3525 45.8337 44.139 44.084 44.139 41.9274V39.8441C44.139 33.8057 39.1367 28.9066 32.9712 28.9066ZM40.1505 41.9274H10.9016V39.8441C10.9016 35.9704 14.1256 32.8128 18.0808 32.8128C19.294 32.8128 21.2633 34.1149 25.526 34.1149C29.822 34.1149 31.7497 32.8128 32.9712 32.8128C36.9264 32.8128 40.1505 35.9704 40.1505 39.8441V41.9274ZM25.526 27.6045C32.132 27.6045 37.4915 22.3555 37.4915 15.8857C37.4915 9.41602 32.132 4.16699 25.526 4.16699C18.9201 4.16699 13.5606 9.41602 13.5606 15.8857C13.5606 22.3555 18.9201 27.6045 25.526 27.6045ZM25.526 8.07324C29.9217 8.07324 33.503 11.5807 33.503 15.8857C33.503 20.1908 29.9217 23.6982 25.526 23.6982C21.1304 23.6982 17.5491 20.1908 17.5491 15.8857C17.5491 11.5807 21.1304 8.07324 25.526 8.07324Z" fill="#16B1AA"/>
</svg>
