<svg xmlns="http://www.w3.org/2000/svg" viewBox="0 0 227.25 195.83"><g id="圖層_2" data-name="圖層 2"><g id="圖層_1-2" data-name="圖層 1"><g id="tickets"><path d="M227.25,86.31c-1,2-2.8,2.85-4.83,3.5Q205.11,95.36,187.85,101a4.76,4.76,0,0,0-2,1.18h1.81q15.1,0,30.19,0c4.29,0,5.77,1.46,5.77,5.72q0,41.07,0,82.14c0,4.16-1.61,5.78-5.77,5.78q-99.79,0-199.57,0c-4.17,0-5.74-1.6-5.74-5.8q0-40.74,0-81.47a15.34,15.34,0,0,0-.71-4.56C8.09,92.53,4.34,81.09.62,69.64c-1.41-4.33-.52-6.09,3.82-7.5L193.45.7c4.77-1.56,6.44-.66,8,4.23q12.48,38.47,25,76.93a17.55,17.55,0,0,0,.79,1.78ZM21.48,111.2c0,.7-.09,1.21-.09,1.72,0,24,0,47.94-.06,71.91,0,2.16,1,2.14,2.58,2.14q94.11,0,188.23,0c.78,0,1.57-.07,2.42-.11V111.18H54.92v2.5q0,22.65,0,45.28a10.08,10.08,0,0,1-.37,3.06,4.27,4.27,0,0,1-4.73,2.84A4.33,4.33,0,0,1,46.09,161c-.08-.81-.05-1.63-.05-2.44V111.2ZM217.22,82.13,193.76,10,41.88,59.32c.26.86.42,1.42.6,2,2.69,8.21,5.36,16.42,8.09,24.62.7,2.13.45,4-1.31,5.41-2.51,2.08-6,.81-7.13-2.63C39.56,81,37.05,73.26,34.51,65.55c-.36-1.1-.77-2.18-1.22-3.45L10,69.7C13.3,80,16.6,89.9,19.75,99.89c.56,1.8,1.36,2.34,3.22,2.33q65.25-.07,130.5-.07a13.24,13.24,0,0,0,3.9-.61Q177.19,95.15,197,88.68Z"/><path d="M137,123.05h58.81a22.09,22.09,0,0,1,2.44.06,4.35,4.35,0,0,1,.72,8.55,7.66,7.66,0,0,1-2,.26q-60,0-120,0c-3.31,0-5.24-1.69-5.26-4.43a4.25,4.25,0,0,1,3.84-4.38,22.09,22.09,0,0,1,2.44-.06Z"/><path d="M97.61,140H117.8c3.31,0,5.25,1.62,5.28,4.35s-1.92,4.51-5.16,4.52q-20.52,0-41,0c-4,0-6.33-3.24-4.71-6.43A4.44,4.44,0,0,1,76.53,140C83.56,140,90.59,140,97.61,140Z"/><path d="M186.16,148.87c-3.54,0-7.09,0-10.64,0-3.21,0-5.17-1.8-5.13-4.54s1.91-4.32,5.05-4.33q10.88,0,21.73,0c3,0,5.06,1.78,5.08,4.37s-2,4.45-5,4.49C193.56,148.91,189.86,148.87,186.16,148.87Z"/><path d="M194,178.31c-1.33,0-2.67.09-4,0a4.31,4.31,0,0,1-4-4.07,4.1,4.1,0,0,1,3.46-4.47,55.06,55.06,0,0,1,9.26,0,4.1,4.1,0,0,1,3.43,4.49,4.3,4.3,0,0,1-4,4C196.85,178.4,195.44,178.31,194,178.31Z"/><path d="M170.6,178.32c-1.33,0-2.67.08-4,0a4.33,4.33,0,0,1-4.1-4.17,4.13,4.13,0,0,1,3.55-4.4,55.68,55.68,0,0,1,9,0,4.08,4.08,0,0,1,3.55,4.39,4.28,4.28,0,0,1-4.07,4.19C173.26,178.4,171.93,178.32,170.6,178.32Z"/><path d="M54.92,176.22c0,3.18-1.77,5.18-4.51,5.16s-4.4-2-4.37-5.44c0-3.05,1.73-5.06,4.33-5.11S54.94,173,54.92,176.22Z"/><path d="M187.24,30.72c0,2-1.22,3.67-3.64,4.47q-12.82,4.23-25.69,8.38Q114.29,57.75,70.67,71.89c-.84.27-1.68.56-2.54.76a4.4,4.4,0,0,1-2.52-8.43C69,63,72.49,62,75.93,60.87l104.5-34C184.15,25.68,187.19,27.41,187.24,30.72Z"/><path d="M117.16,72c-.13,1.78-1.42,3.07-3.53,3.76Q100.88,79.88,88.15,84q-6.95,2.26-13.9,4.5c-2.94.93-5.28-.1-6.15-2.62s.46-4.85,3.33-5.79q19.68-6.43,39.38-12.8C114.33,66.19,117.26,68.16,117.16,72Z"/><path d="M166.3,58.4a4.35,4.35,0,0,1-4.51-3.62,4.27,4.27,0,0,1,3.08-5c5.29-1.8,10.63-3.5,15.95-5.23,2-.66,4.05-1.37,6.11-1.91a4.26,4.26,0,0,1,5.28,2.82,4.08,4.08,0,0,1-2.3,5.33c-7.59,2.61-15.24,5-22.87,7.5A2.69,2.69,0,0,1,166.3,58.4Z"/><path d="M179.2,82.5a4.32,4.32,0,0,1-2.93,3.92c-2.43.87-4.88,1.73-7.37,2.41a4.29,4.29,0,0,1-5.26-2.92,4.19,4.19,0,0,1,2.57-5.41A67.61,67.61,0,0,1,173.78,78,4.44,4.44,0,0,1,179.2,82.5Z"/><path d="M185.89,76.39a4,4,0,0,1,2.87-3.27c2.28-.85,4.59-1.62,6.93-2.27a4.42,4.42,0,1,1,2.64,8.42,72.47,72.47,0,0,1-7.16,2.26C188.31,82.23,185.82,80.09,185.89,76.39Z"/></g></g></g></svg>