<svg xmlns="http://www.w3.org/2000/svg" viewBox="0 0 258.85 258.99"><defs><style>.cls-1{fill:#fff;}</style></defs><g id="圖層_2" data-name="圖層 2"><g id="圖層_1-2" data-name="圖層 1"><g id="youtube"><path class="cls-1" d="M121.8,0h15.67a15,15,0,0,0,1.95.41,123.33,123.33,0,0,1,54.49,16.87c34.43,20.48,55.54,50.43,63,89.88.88,4.7,1.33,9.48,2,14.22v15.68c-.14.81-.3,1.61-.43,2.43-1,6.65-1.63,13.4-3.17,19.92C236.89,237,153,279.7,79.57,248.94,23.53,225.45-8.33,167.26,1.9,107,10.72,55,52,12.66,103.83,2.59,109.76,1.44,115.8.85,121.8,0Zm7.65,80.79q-20.22,0-40.45,0a35.67,35.67,0,0,0-6.29.37C70.31,83.42,61.52,93.32,61.29,106c-.28,15.67-.08,31.34,0,47a22.86,22.86,0,0,0,.66,5c2.76,11.75,12.37,19.93,24.42,20,28.73.19,57.47.06,86.2,0a19,19,0,0,0,3.52-.31c12.49-2.3,21.23-12.25,21.43-25.11.25-15.5.08-31,0-46.51a23.22,23.22,0,0,0-.67-5.24C194,88.62,184,80.89,170.9,80.81,157.09,80.73,143.27,80.79,129.45,80.79Z"/><path class="cls-1" d="M111.67,108.71l35.67,20.81-35.67,20.71Z"/></g></g></g></svg>